<svg width="128" height="128" xmlns="http://www.w3.org/2000/svg"><path
            d="M1022.522514 511.853714C1022.522514 229.595429 793.746286 0.833829 511.502629 0.833829S0.482743 229.595429 0.482743 511.853714c0 282.243657 228.7616 511.005257 511.019886 511.005257S1022.522514 794.097371 1022.522514 511.853714z m-713.9328 143.023543l149.621029-149.621028-149.621029-149.6064c-38.619429-38.619429 21.269943-98.4064 59.889372-59.889372l149.6064 149.621029 149.621028-149.621029c38.619429-38.619429 98.4064 21.269943 59.874743 59.889372L577.974857 505.256229l149.6064 149.621028c38.619429 38.619429-21.255314 98.4064-59.874743 59.874743L518.085486 565.1456 368.493714 714.752c-38.531657 38.531657-98.4064-21.357714-59.889371-59.874743z"></path></svg>