<svg width="128" height="128" xmlns="http://www.w3.org/2000/svg"><path
            d="M512 124.195c52.406 0 103.212 10.25 151.009 30.467 46.195 19.539 87.695 47.523 123.348 83.176s63.637 77.152 83.176 123.349C889.75 408.983 900 459.79 900 512.196s-10.25 103.213-30.467 151.009c-19.539 46.196-47.523 87.696-83.176 123.349s-77.152 63.637-123.348 83.176c-47.797 20.217-98.603 30.467-151.009 30.467s-103.213-10.25-151.009-30.467c-46.195-19.539-87.696-47.523-123.349-83.176-35.653-35.652-63.638-77.152-83.177-123.349C134.25 615.408 124 564.602 124 512.195s10.25-103.213 30.466-151.009c19.539-46.196 47.523-87.696 83.177-123.349 35.652-35.652 77.153-63.637 123.349-83.176 47.795-20.216 98.602-30.466 151.008-30.466m0-60c-247.424 0-448 200.576-448 448s200.576 448 448 448c247.423 0 447.999-200.576 447.999-448s-200.576-448-447.999-448z">
        </path></svg>